<?xml version="1.0" encoding="UTF-8"?>
<svg version="1.1" viewBox="0 0 1000 1000" xmlns="http://www.w3.org/2000/svg" xmlns:cc="http://creativecommons.org/ns#" xmlns:dc="http://purl.org/dc/elements/1.1/" xmlns:rdf="http://www.w3.org/1999/02/22-rdf-syntax-ns#">
  <title>Done icon</title>
  <circle cx="500" cy="500" r="500" stroke-linecap="square" stroke-linejoin="round" stroke-width="100" style="paint-order:fill markers stroke"/>
  <path transform="rotate(30 -33.15 -28.729)" d="m730.34-229.14c-17.075 8.7791-27.163 27.867-23.645 47.815l90.116 511.09-247.58-3.7e-4c-24.93 0-45 20.069-45 44.999l-5e-5 9.9999c0 24.93 20.07 45.002 45 45.002l310-4.4e-4c18.227 0 33.856-10.728 40.943-26.241 5.3908-8.9677 7.6803-19.859 5.7124-31.02l-100.71-571.19c-4.329-24.551-27.581-40.831-52.132-36.502l-9.8476 1.7365c-4.6034 0.81169-8.9156 2.2887-12.856 4.3147z" fill="#fff" stroke-linecap="square" stroke-linejoin="round" stroke-width="95.346" style="paint-order:fill markers stroke"/>
  <metadata>
    <rdf:RDF>
      <cc:Work rdf:about="">
        <dc:creator>
          <cc:Agent>
            <dc:title>Roman Drechsel</dc:title>
          </cc:Agent>
        </dc:creator>
        <dc:rights>
          <cc:Agent>
            <dc:title>Roman Drechsel</dc:title>
          </cc:Agent>
        </dc:rights>
        <dc:publisher>
          <cc:Agent>
            <dc:title>Roman Drechsel</dc:title>
          </cc:Agent>
        </dc:publisher>
        <dc:source>https://roman-drechsel.de</dc:source>
        <cc:license rdf:resource="http://creativecommons.org/licenses/by-nc-sa/4.0/"/>
        <dc:date>2025-08-29</dc:date>
        <dc:title>Done icon</dc:title>
      </cc:Work>
      <cc:License rdf:about="http://creativecommons.org/licenses/by-nc-sa/4.0/">
        <cc:permits rdf:resource="http://creativecommons.org/ns#Reproduction"/>
        <cc:permits rdf:resource="http://creativecommons.org/ns#Distribution"/>
        <cc:requires rdf:resource="http://creativecommons.org/ns#Notice"/>
        <cc:requires rdf:resource="http://creativecommons.org/ns#Attribution"/>
        <cc:prohibits rdf:resource="http://creativecommons.org/ns#CommercialUse"/>
        <cc:permits rdf:resource="http://creativecommons.org/ns#DerivativeWorks"/>
        <cc:requires rdf:resource="http://creativecommons.org/ns#ShareAlike"/>
      </cc:License>
    </rdf:RDF>
  </metadata>
</svg>
