<?xml version="1.0" encoding="UTF-8"?>
<svg version="1.1" viewBox="0 0 1000 1000" xmlns="http://www.w3.org/2000/svg" xmlns:cc="http://creativecommons.org/ns#" xmlns:dc="http://purl.org/dc/elements/1.1/" xmlns:rdf="http://www.w3.org/1999/02/22-rdf-syntax-ns#">
  <path transform="translate(-125 3.0653e-5)" d="m325-3.0653e-5c-41.118 0-75 33.882-75 75v800c0 41.118 33.882 75 75 75h108.42 1.5801v-0.05078a25 25 0 0 0 23.42-24.949 25 25 0 0 0-23.42-24.949v-0.05078h-1.5801-108.42c-14.282 0-25-10.718-25-25v-800c0-14.282 10.718-25 25-25h370v200c0 30.038 24.962 55 55 55h200v570c0 14.282-10.718 25-25 25h-110v0.00976a25 25 0 0 0-0.72657-0.00976 25 25 0 0 0-25 25 25 25 0 0 0 25 25 25 25 0 0 0 0.72657-0.00977v0.00977h110c41.118 0 75-33.882 75-75v-595.39-0.01758c0.0019-6.393-2.4471-12.785-7.3457-17.684l-254.56-254.56c-4.8982-4.8982-11.291-7.3472-17.684-7.3457h-395.41zm420 84.961 170.04 170.04h-165.04c-3.2024 0-5-1.7976-5-5v-165.04zm-345 255.04c-13.85 0-25 11.15-25 25s11.15 25 25 25h380c13.85 0 25-11.15 25-25s-11.15-25-25-25h-380zm0 135c-13.85 0-25 11.15-25 25s11.15 25 25 25h270c13.85 0 25-11.15 25-25s-11.15-25-25-25h-270zm0 135c-13.85 0-25 11.15-25 25s11.15 25 25 25h100c13.85 0 25-11.15 25-25s-11.15-25-25-25h-100zm224.82 40.008c-5.9347 0.15139-11.933 2.3697-16.607 6.6191l-123.76 112.51c-5.1306 4.6642-7.5675 10.778-7.2617 16.674-0.12669 0.7166-0.19336 1.4555-0.19336 2.2109 0 6.7311 5.2527 12.15 11.777 12.15h61.963v179.83c0 11.08 8.92 20 20 20h110c11.08 0 20-8.92 20-20v-179.83h60.361c6.5246 0 11.777-5.4193 11.777-12.15 0-0.4042-0.01964-0.80347-0.05664-1.1973 0.85415-6.0883-1.1878-12.312-6.1816-16.852l-125.59-114.18c-4.4199-4.018-10.29-5.9346-16.225-5.7832z" stop-color="#000000" stroke-linecap="round" stroke-linejoin="bevel" style="paint-order:stroke fill markers"/>
  <metadata>
    <rdf:RDF>
      <cc:Work rdf:about="">
        <dc:creator>
          <cc:Agent>
            <dc:title>Roman Drechsel</dc:title>
          </cc:Agent>
        </dc:creator>
        <dc:rights>
          <cc:Agent>
            <dc:title>Roman Drechsel</dc:title>
          </cc:Agent>
        </dc:rights>
        <dc:publisher>
          <cc:Agent>
            <dc:title>Roman Drechsel</dc:title>
          </cc:Agent>
        </dc:publisher>
        <dc:source>https://roman-drechsel.de</dc:source>
        <dc:date>2024-08-19</dc:date>
        <cc:license rdf:resource="http://creativecommons.org/licenses/by-nc-sa/4.0/"/>
      </cc:Work>
      <cc:License rdf:about="http://creativecommons.org/licenses/by-nc-sa/4.0/">
        <cc:permits rdf:resource="http://creativecommons.org/ns#Reproduction"/>
        <cc:permits rdf:resource="http://creativecommons.org/ns#Distribution"/>
        <cc:requires rdf:resource="http://creativecommons.org/ns#Notice"/>
        <cc:requires rdf:resource="http://creativecommons.org/ns#Attribution"/>
        <cc:prohibits rdf:resource="http://creativecommons.org/ns#CommercialUse"/>
        <cc:permits rdf:resource="http://creativecommons.org/ns#DerivativeWorks"/>
        <cc:requires rdf:resource="http://creativecommons.org/ns#ShareAlike"/>
      </cc:License>
    </rdf:RDF>
  </metadata>
</svg>
