<?xml version="1.0" encoding="UTF-8"?>
<svg version="1.1" viewBox="0 0 1000 1000" xmlns="http://www.w3.org/2000/svg" xmlns:cc="http://creativecommons.org/ns#" xmlns:dc="http://purl.org/dc/elements/1.1/" xmlns:rdf="http://www.w3.org/1999/02/22-rdf-syntax-ns#">
  <title>Failed</title>
  <path d="m1e3 500a500 500 0 0 1-500 500 500 500 0 0 1-500-500 500 500 0 0 1 500-500 500 500 0 0 1 500 500z" stroke-linecap="square" stroke-linejoin="round" stroke-width="100" style="paint-order:fill markers stroke"/>
  <path transform="rotate(45)" d="m336.73-45.476c-8.1563 8.1563-13.188 19.438-13.188 31.937v27.077c0 24.999 20.126 45.125 45.125 45.125h279.77v279.77c0 24.999 20.126 45.125 45.125 45.125h27.077c24.999 0 45.125-20.126 45.125-45.125v-279.77h279.77c24.999 0 45.125-20.126 45.125-45.125v-27.077c0-24.999-20.126-45.125-45.125-45.125h-279.77v-279.77c0-24.999-20.126-45.125-45.125-45.125h-27.077c-24.999 0-45.125 20.126-45.125 45.125v279.77h-279.77c-12.5 0-23.781 5.0315-31.937 13.188z" fill="#fff" stroke-linecap="square" stroke-linejoin="round" stroke-width="59.337" style="paint-order:fill markers stroke"/>
  <metadata>
    <rdf:RDF>
      <cc:Work rdf:about="">
        <dc:creator>
          <cc:Agent>
            <dc:title>Roman Drechsel</dc:title>
          </cc:Agent>
        </dc:creator>
        <dc:rights>
          <cc:Agent>
            <dc:title>Roman Drechsel</dc:title>
          </cc:Agent>
        </dc:rights>
        <dc:publisher>
          <cc:Agent>
            <dc:title>Roman Drechsel</dc:title>
          </cc:Agent>
        </dc:publisher>
        <dc:source>https://roman-drechsel.de</dc:source>
        <cc:license rdf:resource="http://creativecommons.org/licenses/by-nc-sa/4.0/"/>
        <dc:date>2025-08-19</dc:date>
        <dc:title>Failed</dc:title>
      </cc:Work>
      <cc:License rdf:about="http://creativecommons.org/licenses/by-nc-sa/4.0/">
        <cc:permits rdf:resource="http://creativecommons.org/ns#Reproduction"/>
        <cc:permits rdf:resource="http://creativecommons.org/ns#Distribution"/>
        <cc:requires rdf:resource="http://creativecommons.org/ns#Notice"/>
        <cc:requires rdf:resource="http://creativecommons.org/ns#Attribution"/>
        <cc:prohibits rdf:resource="http://creativecommons.org/ns#CommercialUse"/>
        <cc:permits rdf:resource="http://creativecommons.org/ns#DerivativeWorks"/>
        <cc:requires rdf:resource="http://creativecommons.org/ns#ShareAlike"/>
      </cc:License>
    </rdf:RDF>
  </metadata>
</svg>
