<?xml version="1.0" encoding="UTF-8"?>
<svg version="1.1" viewBox="0 0 1000 1000" xmlns="http://www.w3.org/2000/svg" xmlns:cc="http://creativecommons.org/ns#" xmlns:dc="http://purl.org/dc/elements/1.1/" xmlns:rdf="http://www.w3.org/1999/02/22-rdf-syntax-ns#">
  <title>Install update icon</title>
  <path transform="translate(0 -5)" d="m499.55 80c-23.462 0-42.35 18.888-42.35 42.35v297.61l-81.143-81.143c-16.59-16.59-43.302-16.59-59.893 0-16.59 16.59-16.59 43.301 0 59.891l151.12 151.12c0.82682 0.99161 1.7053 1.9534 2.6367 2.8848 8.3286 8.3286 19.209 12.477 30.078 12.443 10.864 0.02984 21.738-4.1186 30.062-12.443 0.92885-0.92885 1.806-1.8882 2.6309-2.877l151.13-151.13c16.59-16.59 16.59-43.301 0-59.891s-43.303-16.59-59.893 0l-82.033 82.033v-298.5c0-23.462-18.888-42.35-42.35-42.35zm-354.55 570c-46.398 0-85 38.602-85 85v110c0 46.398 38.602 85 85 85h710c46.398 0 85-38.602 85-85v-110c0-46.398-38.602-85-85-85h-710zm0 80h710c3.4619 0 5 1.5381 5 5v110c0 3.4619-1.5381 5-5 5h-710c-3.4619 0-5-1.5381-5-5v-110c0-3.4619 1.5381-5 5-5z" stop-color="#000000" stroke-linecap="round" stroke-linejoin="bevel" style="paint-order:stroke fill markers"/>
  <metadata>
    <rdf:RDF>
      <cc:Work rdf:about="">
        <dc:creator>
          <cc:Agent>
            <dc:title>Roman Drechsel</dc:title>
          </cc:Agent>
        </dc:creator>
        <dc:rights>
          <cc:Agent>
            <dc:title>Roman Drechsel</dc:title>
          </cc:Agent>
        </dc:rights>
        <dc:publisher>
          <cc:Agent>
            <dc:title>Roman Drechsel</dc:title>
          </cc:Agent>
        </dc:publisher>
        <dc:source>https://roman-drechsel.de</dc:source>
        <dc:date>2024-08-29</dc:date>
        <cc:license rdf:resource="http://creativecommons.org/licenses/by-nc-sa/4.0/"/>
        <dc:title>Install update icon</dc:title>
      </cc:Work>
      <cc:License rdf:about="http://creativecommons.org/licenses/by-nc-sa/4.0/">
        <cc:permits rdf:resource="http://creativecommons.org/ns#Reproduction"/>
        <cc:permits rdf:resource="http://creativecommons.org/ns#Distribution"/>
        <cc:requires rdf:resource="http://creativecommons.org/ns#Notice"/>
        <cc:requires rdf:resource="http://creativecommons.org/ns#Attribution"/>
        <cc:prohibits rdf:resource="http://creativecommons.org/ns#CommercialUse"/>
        <cc:permits rdf:resource="http://creativecommons.org/ns#DerivativeWorks"/>
        <cc:requires rdf:resource="http://creativecommons.org/ns#ShareAlike"/>
      </cc:License>
    </rdf:RDF>
  </metadata>
</svg>
